<svg xmlns="http://www.w3.org/2000/svg" viewBox="0 0 48 48">
    <path fill="currentColor" d="M46 24.277c0-1.624-.144-3.168-.413-4.722H24.428v8.582h12.196c-.49 2.781-2.061 5.233-4.358 6.784v5.553h7.082C43.682 35.558 46 30.43 46 24.277Z"/>
    <path fill="currentColor" d="M24.428 46.5c5.917 0 10.63-1.94 14.173-5.28l-7.082-5.553c-1.975 1.34-4.521 2.104-7.091 2.104-5.805 0-10.735-3.914-12.488-9.32H4.63v5.824C8.233 41.347 15.61 46.5 24.428 46.5Z"/>
    <path fill="currentColor" d="M11.94 28.452c-.932-2.806-.932-5.863 0-8.67V13.96H4.63C2.077 18.767 2.077 24.787 4.63 29.594l7.31-5.142Z"/>
    <path fill="currentColor" d="M24.428 8.08c3.131-.048 6.15 1.126 8.382 3.271l6.235-6.235C34.999 1.964 29.483-.242 24.428 0 15.61 0 8.233 5.153 4.63 12.906l7.31 5.142c1.752-5.407 6.683-9.32 12.488-9.32Z"/>
</svg>
