<svg xmlns="http://www.w3.org/2000/svg" viewBox="0 0 24 24" fill="currentColor">
    <path d="M19.809 1.504H4.191C2.736 1.504 1.504 2.682 1.504 4.191v15.618c0 1.509 1.185 2.687 2.687 2.687h15.618c1.455 0 2.687-1.185 2.687-2.687V4.191c0-1.509-1.185-2.687-2.687-2.687zm-4.02 14.965c-.146.146-.365.219-.584.219-.146 0-.292-.024-.413-.097l-3.506-1.704a.812.812 0 01-.438-.438L9.144 10.943a.808.808 0 01.122-.999l1.145-1.145c.219-.219.584-.219.803 0l1.097 1.097c.219.219.219.584 0 .803l-.755.755 2.072 2.072.755-.755c.219-.219.584-.219.803 0l1.097 1.097c.219.219.219.584 0 .803l-1.145 1.145a.808.808 0 01-.999.122zM12 8.686a3.314 3.314 0 110-6.628 3.314 3.314 0 010 6.628z"/>
</svg>
