<?xml version="1.0" encoding="UTF-8"?>
<svg xmlns="http://www.w3.org/2000/svg" 
     fill="none" 
     viewBox="0 0 24 24" 
     stroke="currentColor"
     stroke-width="1.5"
     aria-hidden="true" 
     role="img"
     aria-label="Geo Icon">
    <style>
        .geo-pin { 
            animation: bounce 3s ease-in-out infinite;
            transform-origin: 12px 20px;
        }
        .geo-circle { 
            animation: ripple 4s ease-in-out infinite;
            transform-origin: 12px 10px;
        }
        .geo-globe { 
            animation: rotate 8s linear infinite;
            transform-origin: 12px 12px;
        }
        
        @keyframes bounce {
            0%, 100% { transform: translateY(0px); }
            50% { transform: translateY(-3px); }
        }
        
        @keyframes ripple {
            0%, 100% { transform: scale(1); opacity: 0.8; }
            50% { transform: scale(1.1); opacity: 0.4; }
        }
        
        @keyframes rotate {
            0% { transform: rotate(0deg); }
            100% { transform: rotate(360deg); }
        }
        
        svg:hover .geo-pin { 
            animation-duration: 1.5s; 
        }
        svg:hover .geo-circle { 
            animation-duration: 2s; 
        }
        svg:hover .geo-globe { 
            animation-duration: 4s; 
        }
        
        @media (prefers-color-scheme: dark) {
            .geo-circle { opacity: 0.6; }
            .geo-globe { opacity: 0.8; }
        }
        
        @media (prefers-reduced-motion: reduce) {
            .geo-pin, .geo-circle, .geo-globe { animation: none; }
        }
    </style>
    
    <!-- Location pin -->
    <g class="geo-pin">
        <path stroke-linecap="round" stroke-linejoin="round" d="M17.657 16.657L13.414 20.9a1.998 1.998 0 01-2.827 0l-4.244-4.243a8 8 0 1111.314 0z" />
        <circle cx="12" cy="10" r="3" />
    </g>
    
    <!-- Ripple effect -->
    <circle class="geo-circle" cx="12" cy="10" r="5" opacity="0.3" />
    <circle class="geo-circle" cx="12" cy="10" r="7" opacity="0.2" />
    
    <!-- Globe background -->
    <g class="geo-globe" opacity="0.4">
        <circle cx="12" cy="12" r="10" stroke-width="0.5" />
        <path stroke-linecap="round" d="M2 12h20M12 2a15.3 15.3 0 014 10 15.3 15.3 0 01-4 10 15.3 15.3 0 01-4-10 15.3 15.3 0 014-10z" stroke-width="0.5" />
    </g>
    
    <!-- Coordinate indicators -->
    <circle cx="12" cy="10" r="1" fill="currentColor" opacity="0.8" />
    <circle cx="8" cy="8" r="0.5" fill="currentColor" opacity="0.5" />
    <circle cx="16" cy="8" r="0.5" fill="currentColor" opacity="0.5" />
    <circle cx="12" cy="6" r="0.5" fill="currentColor" opacity="0.6" />
    
    <!-- Navigation arrows -->
    <path stroke-linecap="round" stroke-linejoin="round" d="M12 2l2 2-2 2-2-2 2-2z" opacity="0.6" stroke-width="1" />
</svg>
