<?xml version="1.0" encoding="UTF-8"?>
<svg width="24" height="24" viewBox="0 0 24 24" fill="none" xmlns="http://www.w3.org/2000/svg">
    <style>
        .gear { animation: rotate 4s linear infinite; transform-origin: center; }
        @keyframes rotate {
            from { transform: rotate(0deg); }
            to { transform: rotate(360deg); }
        }
    </style>
    <path class="gear" d="M12 8c-2.2 0-4 1.8-4 4s1.8 4 4 4 4-1.8 4-4-1.8-4-4-4zm0 6c-1.1 0-2-.9-2-2s.9-2 2-2 2 .9 2 2-.9 2-2 2z" fill="currentColor"/>
    <path class="gear" d="M12 3c-.3 0-.6.2-.7.5l-.4 1.4c-.5.1-1 .3-1.4.6l-1.3-.5c-.3-.1-.6 0-.8.3l-1 1.7c-.2.3-.1.6.1.8l1.1.9c0 .3-.1.5-.1.8s0 .5.1.8l-1.1.9c-.2.2-.3.6-.1.8l1 1.7c.2.3.5.4.8.3l1.3-.5c.4.2.9.4 1.4.6l.4 1.4c.1.3.4.5.7.5h2c.3 0 .6-.2.7-.5l.4-1.4c.5-.1 1-.3 1.4-.6l1.3.5c.3.1.6 0 .8-.3l1-1.7c.2-.3.1-.6-.1-.8l-1.1-.9c0-.3.1-.5.1-.8s0-.5-.1-.8l1.1-.9c.2-.2.3-.6.1-.8l-1-1.7c-.2-.3-.5-.4-.8-.3l-1.3.5c-.4-.2-.9-.4-1.4-.6l-.4-1.4c-.1-.3-.4-.5-.7-.5h-2z" fill="currentColor"/>
</svg>
